<svg width="635" height="78" viewBox="0 0 635 78" fill="none" xmlns="http://www.w3.org/2000/svg">
<path d="M16.0414 1.49999H0.541406V76H16.0414V1.49999ZM83.2289 44.6L30.2289 0.0999937V76H45.7289V33.2L98.7289 77.3V1.49999H83.2289V44.6ZM128.444 76V43.3H156.444V29.4H128.444V15.5H152.544V1.49999H112.944V76H128.444ZM166.557 1.49999V76H212.057V62H182.057V1.49999H166.557ZM250.791 77.3C270.591 77.3 282.691 64.5 282.691 42.8V1.49999H267.391V44.1C267.391 55.3 262.391 62.4 250.791 62.4C239.791 62.4 234.091 55.8 234.091 44.1V1.49999H218.591V41.5C218.591 62.2 228.991 77.3 250.791 77.3ZM342.347 76V62H311.647V43.3H339.647V29.4H311.647V15.5H335.747V1.49999H296.147V76H342.347ZM406.471 44.6L353.471 0.0999937V76H368.971V33.2L421.971 77.3V1.49999H406.471V44.6ZM494.086 43.1C491.986 54.3 482.586 62.4 471.386 62.4C458.886 62.4 448.986 51.9 448.986 38.8C448.986 25.6 458.886 15 471.386 15C479.086 15 486.686 18.9 492.086 26.9L504.186 18.3C497.486 7.4 485.186 0.199998 471.286 0.199998C450.086 0.199998 433.086 17.5 433.086 38.8C433.086 60.1 450.086 77.3 471.386 77.3C491.186 77.3 507.586 62.2 509.786 43.1H494.086ZM567.054 76V62H536.354V43.3H564.354V29.4H536.354V15.5H560.454V1.49999H520.854V76H567.054ZM601.478 63.1L613.678 76H634.278L618.178 58.8C628.578 54 634.978 44.2 634.978 30.8C634.978 14.6 621.578 1.49999 604.078 1.49999H578.178V76H593.678V63.1H601.478ZM593.678 49.1V15.5H603.078C613.678 15.5 619.078 22.9 619.078 32C619.078 43.1 612.378 49.1 600.078 49.1H593.678Z" fill="#2C2738"/>
</svg>
