<svg width="48" height="48" viewBox="0 0 48 48" fill="none" xmlns="http://www.w3.org/2000/svg">
<path d="M36 24L37.4142 25.4142L38.8284 24L37.4142 22.5858L36 24ZM25.4142 37.4142L37.4142 25.4142L34.5858 22.5858L22.5858 34.5858L25.4142 37.4142ZM37.4142 22.5858L25.4142 10.5858L22.5858 13.4142L34.5858 25.4142L37.4142 22.5858Z" fill="white"/>
<path d="M24 24L25.4142 25.4142L26.8284 24L25.4142 22.5858L24 24ZM13.4142 37.4142L25.4142 25.4142L22.5858 22.5858L10.5858 34.5858L13.4142 37.4142ZM25.4142 22.5858L13.4142 10.5858L10.5858 13.4142L22.5858 25.4142L25.4142 22.5858Z" fill="white"/>
</svg>
